<svg xmlns="http://www.w3.org/2000/svg" width="24" height="24" viewBox="0 0 24 24" aria-labelledby="title" role="img">
  <title>Unisex (Side-by-Side)</title>
  <!-- Left: Male (cyan), shifted left by 3px so head centers at x=9 -->
  <g transform="translate(-3,0)">
    <circle cx="12" cy="6" r="3" fill="#12B7FF"/>
    <path fill="#12B7FF" d="M12 21
      C 11.2 21, 10.6 20.6, 10.3 19.9
      L 6.7 11.8
      C 6.2 10.7, 7.0 9.5, 8.2 9.5
      H 15.8
      C 17.0 9.5, 17.8 10.7, 17.3 11.8
      L 13.7 19.9
      C 13.4 20.6, 12.8 21, 12 21 Z"/>
  </g>

  <!-- Right: Female (pink), shifted right by 3px so head centers at x=15 -->
  <g transform="translate(3,0)">
    <circle cx="12" cy="6" r="3" fill="#FF5AA7"/>
    <path fill="#FF5AA7" d="M7.5 20.5
      C 6.1 20.5, 5.3 19.0, 6.0 17.8
      L 9.5 11.2
      C 10.0 10.3, 10.9 9.8, 12 9.8
      C 13.1 9.8, 14.0 10.3, 14.5 11.2
      L 18.0 17.8
      C 18.7 19.0, 17.9 20.5, 16.5 20.5
      Z"/>
  </g>
</svg>
